#!OML:ASF C:\Vicon Data\Big\jianyuan-13\jianyuan\Session 1\Capture.male.ASF
:FULLY-SPECIFIED
:DEGREES
42
root -8.218046 17.692900 -21.786181 8.554611 8.728132 0.072825
lowerback -10.886180 0.399705 1.049914 
upperback 2.111825 0.303405 1.030134 
thorax 8.368814 0.170228 0.555914 
lowerneck -0.553331 -2.697287 3.076214 
upperneck 16.296547 -3.366262 -3.263173 
head 4.863331 -1.657828 -1.664078 
rclavicle 0.000000 0.000000 
rhumerus -39.021232 -16.759883 -78.498585 
rradius 37.666890 
rwrist 23.748603 
rhand -18.809740 -18.668197 
rfingers 0.000000 
rthumb 7.488788 -48.515648 
lclavicle 0.000000 0.000000 
lhumerus -41.766603 31.325711 69.738809 
lradius 27.641875 
lwrist -51.731136 
lhand -18.868596 1.889716 
lfingers 0.000000 
lthumb 7.432013 31.739197 
rfemur -30.634528 4.262902 21.591369 
rtibia 33.368945 
rfoot -13.087980 -4.682996 
rtoes -27.011609 
lfemur -20.701573 8.027560 -18.004644 
ltibia 66.106172 
lfoot 4.437128 1.253223 
ltoes -39.542892 
43
root -8.244034 17.691115 -21.722294 8.367483 9.135625 -0.045216
lowerback -10.526423 0.396366 1.194998 
upperback 2.270206 0.280637 1.065654 
thorax 8.332692 0.165634 0.506015 
lowerneck -0.697873 -2.771117 3.054869 
upperneck 16.137846 -3.491398 -3.107323 
head 4.838743 -1.712085 -1.617245 
rclavicle 0.000000 0.000000 
rhumerus -38.860850 -16.408115 -78.782126 
rradius 37.657363 
rwrist 23.690674 
rhand -18.779832 -18.624023 
rfingers 0.000000 
rthumb 7.517631 -48.470392 
lclavicle 0.000000 0.000000 
lhumerus -41.449413 31.502995 69.857871 
lradius 27.630994 
lwrist -51.774620 
lhand -19.018153 1.984025 
lfingers 0.000000 
lthumb 7.287655 31.838550 
rfemur -30.206370 4.150288 21.883732 
rtibia 33.399224 
rfoot -13.440836 -4.841711 
rtoes -26.615958 
lfemur -23.029734 8.345422 -17.555184 
ltibia 69.359761 
lfoot 4.766072 1.749122 
ltoes -35.957276 
44
root -8.278173 17.695533 -21.657575 8.219838 9.376546 -0.007508
lowerback -10.214823 0.429969 1.088772 
upperback 2.427905 0.345174 1.046189 
thorax 8.321918 0.192555 0.555044 
lowerneck -0.747379 -2.843354 3.114911 
upperneck 15.982365 -3.607033 -3.013562 
head 4.796738 -1.760217 -1.601089 
rclavicle 0.000000 0.000000 
rhumerus -38.681110 -16.277156 -79.032719 
rradius 37.750060 
rwrist 23.350173 
rhand -18.699344 -18.670293 
rfingers 0.000000 
rthumb 7.595351 -48.513918 
lclavicle 0.000000 0.000000 
lhumerus -40.946781 31.137011 70.202314 
lradius 27.622187 
lwrist -51.381096 
lhand -18.996628 2.053683 
lfingers 0.000000 
lthumb 7.308433 31.907482 
rfemur -29.756736 4.235197 22.012696 
rtibia 33.367195 
rfoot -13.782718 -5.097817 
rtoes -26.296533 
lfemur -25.347140 8.844223 -17.352666 
ltibia 72.470729 
lfoot 3.524733 2.015135 
ltoes -36.017651 
45
root -8.305178 17.704969 -21.605708 7.959105 9.676731 0.056924
lowerback -9.643142 0.465393 1.040846 
upperback 2.599229 0.409004 1.020749 
thorax 8.175091 0.222203 0.561668 
lowerneck -0.818020 -2.939285 2.951654 
upperneck 15.812782 -3.774520 -2.686455 
head 4.762335 -1.833169 -1.478514 
rclavicle 0.000000 0.000000 
rhumerus -38.442305 -16.246414 -79.089012 
rradius 37.485762 
rwrist 23.912676 
rhand -18.673761 -18.355929 
rfingers 0.000000 
rthumb 7.620094 -48.198583 
lclavicle 0.000000 0.000000 
lhumerus -40.571291 31.329536 70.305404 
lradius 27.567485 
lwrist -51.714261 
lhand -18.994474 1.810462 
lfingers 0.000000 
lthumb 7.310471 31.664163 
rfemur -29.185487 3.935980 22.161800 
rtibia 33.249102 
rfoot -14.009333 -5.061969 
rtoes -25.905312 
lfemur -27.661964 9.154414 -17.229007 
ltibia 75.484901 
lfoot 1.301453 2.210418 
ltoes -36.874262 
46
root -8.343385 17.713911 -21.550121 7.806279 9.870462 0.168880
lowerback -9.192895 0.511240 0.791921 
upperback 2.716963 0.509967 0.990187 
thorax 8.038439 0.260077 0.682006 
lowerneck -0.810576 -2.998615 3.025435 
upperneck 15.716712 -3.869367 -2.601745 
head 4.729549 -1.870539 -1.466563 
rclavicle 0.000000 0.000000 
rhumerus -38.279865 -16.214689 -79.358657 
rradius 37.548945 
rwrist 23.787702 
rhand -18.623789 -18.742757 
rfingers 0.000000 
rthumb 7.668263 -48.583757 
lclavicle 0.000000 0.000000 
lhumerus -40.125306 31.243664 70.510814 
lradius 27.517532 
lwrist -51.988289 
lhand -19.121357 2.118938 
lfingers 0.000000 
lthumb 7.187984 31.976838 
rfemur -28.709696 4.012225 22.221968 
rtibia 33.142777 
rfoot -14.297225 -5.260871 
rtoes -25.485175 
lfemur -30.117600 9.615434 -17.184621 
ltibia 78.322380 
lfoot -0.342639 1.926892 
ltoes -36.267981 
47
root -8.367659 17.728267 -21.504783 7.850936 10.206441 0.441251
lowerback -8.847832 0.536457 0.596986 
upperback 2.773398 0.581715 0.855141 
thorax 7.897807 0.289467 0.656714 
lowerneck -0.841011 -3.102029 2.995636 
upperneck 15.661965 -4.042367 -2.343903 
head 4.720149 -1.941956 -1.388747 
rclavicle 0.000000 0.000000 
rhumerus -38.135328 -16.352396 -79.472171 
rradius 37.337485 
rwrist 24.192198 
rhand -18.695229 -18.744972 
rfingers 0.000000 
rthumb 7.599335 -48.588446 
lclavicle 0.000000 0.000000 
lhumerus -39.698901 31.229809 70.618494 
lradius 27.486501 
lwrist -51.953303 
lhand -18.866443 1.797430 
lfingers 0.000000 
lthumb 7.434088 31.646806 
rfemur -28.508447 3.895720 22.039571 
rtibia 33.135352 
rfoot -14.558759 -5.293258 
rtoes -24.497492 
lfemur -32.890469 9.734398 -17.454984 
ltibia 80.976234 
lfoot -1.506860 1.676277 
ltoes -35.382087 
48
root -8.399935 17.741853 -21.461828 7.833879 10.527599 0.633170
lowerback -8.394962 0.562732 0.358385 
upperback 2.822204 0.654252 0.785526 
thorax 7.685269 0.315710 0.723230 
lowerneck -0.872363 -3.214773 2.954461 
upperneck 15.664598 -4.212136 -2.194964 
head 4.726454 -2.018219 -1.343416 
rclavicle 0.000000 0.000000 
rhumerus -38.015315 -16.198180 -79.698414 
rradius 37.389204 
rwrist 23.887020 
rhand -18.793005 -19.124937 
rfingers 0.000000 
rthumb 7.504987 -48.971841 
lclavicle 0.000000 0.000000 
lhumerus -39.303091 31.226700 70.748670 
lradius 27.412894 
lwrist -52.647914 
lhand -19.084274 1.986592 
lfingers 0.000000 
lthumb 7.223793 31.843287 
rfemur -28.217695 4.123537 21.907132 
rtibia 33.084090 
rfoot -14.884321 -5.533455 
rtoes -23.316761 
lfemur -35.572560 9.799705 -17.567211 
ltibia 83.446040 
lfoot -2.750504 1.251928 
ltoes -35.803073 
49
root -8.427684 17.758239 -21.414263 7.672199 10.856804 0.966381
lowerback -7.881383 0.586414 0.008057 
upperback 2.992540 0.735192 0.679333 
thorax 7.566345 0.341639 0.815110 
lowerneck -0.985749 -3.307280 2.907350 
upperneck 15.600169 -4.358940 -2.029604 
head 4.727383 -2.083282 -1.291853 
rclavicle 0.000000 0.000000 
rhumerus -37.825705 -16.173558 -79.772757 
rradius 37.348494 
rwrist 23.969003 
rhand -18.830066 -19.148317 
rfingers 0.000000 
rthumb 7.469192 -48.996461 
lclavicle 0.000000 0.000000 
lhumerus -38.674448 31.105198 71.103021 
lradius 27.340128 
lwrist -52.328280 
lhand -18.934393 1.876772 
lfingers 0.000000 
lthumb 7.368490 31.728420 
rfemur -27.655431 4.305277 21.651131 
rtibia 32.872042 
rfoot -15.140491 -5.961721 
rtoes -22.741287 
lfemur -38.071805 9.818643 -17.900013 
ltibia 85.726544 
lfoot -3.900281 0.610626 
ltoes -38.879701 
50
root -8.464464 17.772470 -21.375466 7.699858 11.233811 1.164011
lowerback -7.498604 0.613282 -0.279692 
upperback 3.088524 0.808307 0.598934 
thorax 7.443533 0.366261 0.898126 
lowerneck -1.079196 -3.408744 2.909547 
upperneck 15.544682 -4.517578 -1.881049 
head 4.726213 -2.152205 -1.253862 
rclavicle 0.000000 0.000000 
rhumerus -37.611724 -16.432733 -79.914140 
rradius 37.397513 
rwrist 23.811900 
rhand -18.769327 -18.969799 
rfingers 0.000000 
rthumb 7.527834 -48.815872 
lclavicle 0.000000 0.000000 
lhumerus -38.107767 31.066796 71.357289 
lradius 27.318311 
lwrist -52.729431 
lhand -18.893831 1.889234 
lfingers 0.000000 
lthumb 7.407635 31.739564 
rfemur -27.321028 4.480679 21.598081 
rtibia 32.621770 
rfoot -15.254904 -6.471519 
rtoes -22.638952 
lfemur -40.898185 9.775847 -18.039896 
ltibia 87.898455 
lfoot -4.746562 -0.395944 
ltoes -39.864920 
51
root -8.490924 17.794488 -21.331130 7.480522 11.665795 1.475914
lowerback -6.894294 0.702248 -0.544366 
upperback 3.313085 0.969655 0.363120 
thorax 7.330514 0.439313 0.814009 
lowerneck -1.354616 -3.619074 3.241344 
upperneck 15.489979 -4.854482 -1.697449 
head 4.745301 -2.288241 -1.270065 
rclavicle 0.000000 0.000000 
rhumerus -37.338601 -16.607339 -80.287074 
rradius 37.518320 
rwrist 23.524431 
rhand -18.758214 -19.252620 
rfingers 0.000000 
rthumb 7.538532 -49.098273 
lclavicle 0.000000 0.000000 
lhumerus -37.273130 30.681489 71.677509 
lradius 27.236209 
lwrist -52.975180 
lhand -19.165838 1.956446 
lfingers 0.000000 
lthumb 7.145077 31.815864 
rfemur -26.648988 4.480052 21.395405 
rtibia 32.346301 
rfoot -15.571749 -6.872805 
rtoes -22.008749 
lfemur -43.389673 9.627188 -18.386885 
ltibia 89.831109 
lfoot -5.449269 -1.449789 
ltoes -41.776439 
